<?xml version="1.0" encoding="utf-8"?>
<!-- Generator: Adobe Illustrator 16.0.0, SVG Export Plug-In . SVG Version: 6.00 Build 0)  -->
<!DOCTYPE svg PUBLIC "-//W3C//DTD SVG 1.1//EN" "http://www.w3.org/Graphics/SVG/1.1/DTD/svg11.dtd">
<svg version="1.1" xmlns="http://www.w3.org/2000/svg" xmlns:xlink="http://www.w3.org/1999/xlink" x="0px" y="0px" width="48px"
	 height="64px" viewBox="0 0 48 64" enable-background="new 0 0 48 64" xml:space="preserve">
<g id="Layer_1">
</g>
<g id="Layer_2">
	<path fill="#FFFFFF" d="M34.431,0H0v64h48V14L34.431,0z M4,4.084h24.167V8.25H4V4.084z M4,12h24.167v4.167H4V12z M4,27.833h16V32H4
		V27.833z M20.021,36.104v4.166h-16v-4.166H20.021z M32.001,56.167H4V52h28.001V56.167z M44.167,48.167H4V44h40.167V48.167z
		 M44.167,40.271H24V27.833h20.167V40.271z M44.167,24.083H4.001v-4.167h40.166V24.083z M32.001,16.167V3.833l12.166,12.333H32.001z
		"/>
</g>
</svg>
